STARTFONT 2.1
COMMENT
COMMENT Converted from OpenType font "baby blocks.ttf" by "otf2bdf 3.0".
COMMENT
FONT -FreeType-Baby blocks-Medium-R-Normal--17-120-100-100-P-42-ISO10646-1
SIZE 12 100 100
FONTBOUNDINGBOX 18 17 0 -4
STARTPROPERTIES 19
FOUNDRY "FreeType"
FAMILY_NAME "Baby blocks"
WEIGHT_NAME "Medium"
SLANT "R"
SETWIDTH_NAME "Normal"
ADD_STYLE_NAME ""
PIXEL_SIZE 17
POINT_SIZE 120
RESOLUTION_X 100
RESOLUTION_Y 100
SPACING "P"
AVERAGE_WIDTH 42
CHARSET_REGISTRY "ISO10646"
CHARSET_ENCODING "1"
FONT_ASCENT 12
FONT_DESCENT 4
COPYRIGHT "2000-2004 (c) Futaba. All rights reserved."
_OTF_FONTFILE "baby blocks.ttf"
_OTF_PSNAME "Baby-blocks"
ENDPROPERTIES
CHARS 219
STARTCHAR 0020
ENCODING 32
SWIDTH 240 0
DWIDTH 4 0
BBX 0 0 0 0
BITMAP
ENDCHAR
STARTCHAR 0021
ENCODING 33
SWIDTH 1140 0
DWIDTH 19 0
BBX 17 17 1 -4
BITMAP
1FFF80
200180
200380
400280
FFFC80
800480
800480
820480
820480
820480
820480
820480
800480
820480
800500
800600
FFFC00
ENDCHAR
STARTCHAR 0022
ENCODING 34
SWIDTH 300 0
DWIDTH 5 0
BBX 3 2 1 7
BITMAP
A0
A0
ENDCHAR
STARTCHAR 0023
ENCODING 35
SWIDTH 480 0
DWIDTH 8 0
BBX 5 5 0 4
BITMAP
50
F8
50
F8
50
ENDCHAR
STARTCHAR 0024
ENCODING 36
SWIDTH 480 0
DWIDTH 8 0
BBX 0 0 0 0
BITMAP
ENDCHAR
STARTCHAR 0025
ENCODING 37
SWIDTH 480 0
DWIDTH 8 0
BBX 0 0 0 0
BITMAP
ENDCHAR
STARTCHAR 0026
ENCODING 38
SWIDTH 480 0
DWIDTH 8 0
BBX 0 0 0 0
BITMAP
ENDCHAR
STARTCHAR 0027
ENCODING 39
SWIDTH 180 0
DWIDTH 3 0
BBX 1 2 1 7
BITMAP
80
80
ENDCHAR
STARTCHAR 0028
ENCODING 40
SWIDTH 480 0
DWIDTH 8 0
BBX 0 0 0 0
BITMAP
ENDCHAR
STARTCHAR 0029
ENCODING 41
SWIDTH 480 0
DWIDTH 8 0
BBX 0 0 0 0
BITMAP
ENDCHAR
STARTCHAR 002A
ENCODING 42
SWIDTH 480 0
DWIDTH 8 0
BBX 0 0 0 0
BITMAP
ENDCHAR
STARTCHAR 002B
ENCODING 43
SWIDTH 420 0
DWIDTH 7 0
BBX 5 5 1 2
BITMAP
20
20
F8
20
20
ENDCHAR
STARTCHAR 002C
ENCODING 44
SWIDTH 480 0
DWIDTH 8 0
BBX 2 3 1 -1
BITMAP
C0
C0
40
ENDCHAR
STARTCHAR 002D
ENCODING 45
SWIDTH 360 0
DWIDTH 6 0
BBX 4 1 1 4
BITMAP
F0
ENDCHAR
STARTCHAR 002E
ENCODING 46
SWIDTH 240 0
DWIDTH 4 0
BBX 2 2 1 0
BITMAP
C0
C0
ENDCHAR
STARTCHAR 002F
ENCODING 47
SWIDTH 480 0
DWIDTH 8 0
BBX 0 0 0 0
BITMAP
ENDCHAR
STARTCHAR 0030
ENCODING 48
SWIDTH 1140 0
DWIDTH 19 0
BBX 17 17 1 -4
BITMAP
1FFF80
200180
200380
400280
FFFC80
800480
800480
870480
888480
8C8480
8A8480
898480
888480
870480
800500
800600
FFFC00
ENDCHAR
STARTCHAR 0031
ENCODING 49
SWIDTH 1140 0
DWIDTH 19 0
BBX 17 17 1 -4
BITMAP
1FFF80
200180
200380
400280
FFFC80
800480
800480
820480
860480
8A0480
820480
820480
820480
8F8480
800500
800600
FFFC00
ENDCHAR
STARTCHAR 0032
ENCODING 50
SWIDTH 1140 0
DWIDTH 19 0
BBX 17 17 1 -4
BITMAP
1FFF80
200180
200380
400280
FFFC80
800480
800480
870480
888480
888480
830480
840480
880480
8F8480
800500
800600
FFFC00
ENDCHAR
STARTCHAR 0033
ENCODING 51
SWIDTH 1140 0
DWIDTH 19 0
BBX 17 17 1 -4
BITMAP
1FFF80
200180
200380
400280
FFFC80
800480
800480
870480
888480
888480
830480
808480
888480
870480
800500
800600
FFFC00
ENDCHAR
STARTCHAR 0034
ENCODING 52
SWIDTH 1140 0
DWIDTH 19 0
BBX 17 17 1 -4
BITMAP
1FFF80
200180
200380
400280
FFFC80
800480
800480
830480
850480
850480
890480
8F8480
810480
810480
800500
800600
FFFC00
ENDCHAR
STARTCHAR 0035
ENCODING 53
SWIDTH 1140 0
DWIDTH 19 0
BBX 17 17 1 -4
BITMAP
1FFF80
200180
200380
400280
FFFC80
800480
800480
8F8480
880480
880480
8F0480
808480
888480
870480
800500
800600
FFFC00
ENDCHAR
STARTCHAR 0036
ENCODING 54
SWIDTH 1140 0
DWIDTH 19 0
BBX 17 17 1 -4
BITMAP
1FFF80
200180
200380
400280
FFFC80
800480
800480
870480
888480
880480
8F0480
888480
888480
870480
800500
800600
FFFC00
ENDCHAR
STARTCHAR 0037
ENCODING 55
SWIDTH 1140 0
DWIDTH 19 0
BBX 17 17 1 -4
BITMAP
1FFF80
200180
200380
400280
FFFC80
800480
800480
8F8480
888480
888480
810480
820480
820480
820480
800500
800600
FFFC00
ENDCHAR
STARTCHAR 0038
ENCODING 56
SWIDTH 1140 0
DWIDTH 19 0
BBX 17 17 1 -4
BITMAP
1FFF80
200180
200380
400280
FFFC80
800480
800480
870480
888480
888480
870480
888480
888480
870480
800500
800600
FFFC00
ENDCHAR
STARTCHAR 0039
ENCODING 57
SWIDTH 1140 0
DWIDTH 19 0
BBX 17 17 1 -4
BITMAP
1FFF80
200180
200380
400280
FFFC80
800480
800480
870480
888480
888480
878480
808480
888480
870480
800500
800600
FFFC00
ENDCHAR
STARTCHAR 003A
ENCODING 58
SWIDTH 480 0
DWIDTH 8 0
BBX 0 0 0 0
BITMAP
ENDCHAR
STARTCHAR 003B
ENCODING 59
SWIDTH 480 0
DWIDTH 8 0
BBX 0 0 0 0
BITMAP
ENDCHAR
STARTCHAR 003C
ENCODING 60
SWIDTH 480 0
DWIDTH 8 0
BBX 0 0 0 0
BITMAP
ENDCHAR
STARTCHAR 003D
ENCODING 61
SWIDTH 480 0
DWIDTH 8 0
BBX 0 0 0 0
BITMAP
ENDCHAR
STARTCHAR 003E
ENCODING 62
SWIDTH 480 0
DWIDTH 8 0
BBX 0 0 0 0
BITMAP
ENDCHAR
STARTCHAR 003F
ENCODING 63
SWIDTH 1140 0
DWIDTH 19 0
BBX 17 17 1 -4
BITMAP
1FFF80
200180
200380
400280
FFFC80
800480
800480
870480
888480
890480
820480
820480
800480
820480
800500
800600
FFFC00
ENDCHAR
STARTCHAR 0040
ENCODING 64
SWIDTH 1140 0
DWIDTH 19 0
BBX 17 17 1 -4
BITMAP
1FFF80
200180
200380
400280
FFFC80
800480
800480
870480
888480
8B8480
8A8480
888480
880480
870480
800500
800600
FFFC00
ENDCHAR
STARTCHAR 0041
ENCODING 65
SWIDTH 1140 0
DWIDTH 19 0
BBX 17 17 1 -4
BITMAP
1FFF80
200180
200380
400280
FFFC80
800480
800480
870480
888480
888480
8F8480
888480
888480
888480
800500
800600
FFFC00
ENDCHAR
STARTCHAR 0042
ENCODING 66
SWIDTH 1140 0
DWIDTH 19 0
BBX 17 17 1 -4
BITMAP
1FFF80
200180
200380
400280
FFFC80
800480
800480
8F0480
888480
888480
8F0480
888480
888480
8F0480
800500
800600
FFFC00
ENDCHAR
STARTCHAR 0043
ENCODING 67
SWIDTH 1140 0
DWIDTH 19 0
BBX 17 17 1 -4
BITMAP
1FFF80
200180
200380
400280
FFFC80
800480
800480
870480
888480
880480
880480
880480
888480
870480
800500
800600
FFFC00
ENDCHAR
STARTCHAR 0044
ENCODING 68
SWIDTH 1140 0
DWIDTH 19 0
BBX 17 17 1 -4
BITMAP
1FFF80
200180
200380
400280
FFFC80
800480
800480
8F0480
888480
888480
888480
888480
888480
8F0480
800500
800600
FFFC00
ENDCHAR
STARTCHAR 0045
ENCODING 69
SWIDTH 1140 0
DWIDTH 19 0
BBX 17 17 1 -4
BITMAP
1FFF80
200180
200380
400280
FFFC80
800480
800480
8F8480
880480
880480
8F8480
880480
880480
8F8480
800500
800600
FFFC00
ENDCHAR
STARTCHAR 0046
ENCODING 70
SWIDTH 1140 0
DWIDTH 19 0
BBX 17 17 1 -4
BITMAP
1FFF80
200180
200380
400280
FFFC80
800480
800480
8F8480
880480
880480
8F8480
880480
880480
880480
800500
800600
FFFC00
ENDCHAR
STARTCHAR 0047
ENCODING 71
SWIDTH 1140 0
DWIDTH 19 0
BBX 17 17 1 -4
BITMAP
1FFF80
200180
200380
400280
FFFC80
800480
800480
870480
888480
880480
898480
888480
888480
870480
800500
800600
FFFC00
ENDCHAR
STARTCHAR 0048
ENCODING 72
SWIDTH 1140 0
DWIDTH 19 0
BBX 17 17 1 -4
BITMAP
1FFF80
200180
200380
400280
FFFC80
800480
800480
888480
888480
888480
8F8480
888480
888480
888480
800500
800600
FFFC00
ENDCHAR
STARTCHAR 0049
ENCODING 73
SWIDTH 1140 0
DWIDTH 19 0
BBX 17 17 1 -4
BITMAP
1FFF80
200180
200380
400280
FFFC80
800480
800480
8F8480
820480
820480
820480
820480
820480
8F8480
800500
800600
FFFC00
ENDCHAR
STARTCHAR 004A
ENCODING 74
SWIDTH 1140 0
DWIDTH 19 0
BBX 17 17 1 -4
BITMAP
1FFF80
200180
200380
400280
FFFC80
800480
800480
8F8480
810480
810480
810480
810480
890480
860480
800500
800600
FFFC00
ENDCHAR
STARTCHAR 004B
ENCODING 75
SWIDTH 1140 0
DWIDTH 19 0
BBX 17 17 1 -4
BITMAP
1FFF80
200180
200380
400280
FFFC80
800480
800480
888480
890480
8A0480
8C0480
8A0480
890480
888480
800500
800600
FFFC00
ENDCHAR
STARTCHAR 004C
ENCODING 76
SWIDTH 1140 0
DWIDTH 19 0
BBX 17 17 1 -4
BITMAP
1FFF80
200180
200380
400280
FFFC80
800480
800480
880480
880480
880480
880480
880480
880480
8F8480
800500
800600
FFFC00
ENDCHAR
STARTCHAR 004D
ENCODING 77
SWIDTH 1140 0
DWIDTH 19 0
BBX 17 17 1 -4
BITMAP
1FFF80
200180
200380
400280
FFFC80
800480
800480
8D8480
8A8480
8A8480
8A8480
8A8480
8A8480
8A8480
800500
800600
FFFC00
ENDCHAR
STARTCHAR 004E
ENCODING 78
SWIDTH 1140 0
DWIDTH 19 0
BBX 17 17 1 -4
BITMAP
1FFF80
200180
200380
400280
FFFC80
800480
800480
8C8480
8A8480
8A8480
8A8480
8A8480
8A8480
898480
800500
800600
FFFC00
ENDCHAR
STARTCHAR 004F
ENCODING 79
SWIDTH 1140 0
DWIDTH 19 0
BBX 17 17 1 -4
BITMAP
1FFF80
200180
200380
400280
FFFC80
800480
800480
870480
888480
888480
888480
888480
888480
870480
800500
800600
FFFC00
ENDCHAR
STARTCHAR 0050
ENCODING 80
SWIDTH 1140 0
DWIDTH 19 0
BBX 17 17 1 -4
BITMAP
1FFF80
200180
200380
400280
FFFC80
800480
800480
8F0480
888480
888480
8F0480
880480
880480
880480
800500
800600
FFFC00
ENDCHAR
STARTCHAR 0051
ENCODING 81
SWIDTH 1140 0
DWIDTH 19 0
BBX 17 17 1 -4
BITMAP
1FFF80
200180
200380
400280
FFFC80
800480
800480
870480
888480
888480
888480
888480
8A8480
870480
820500
800600
FFFC00
ENDCHAR
STARTCHAR 0052
ENCODING 82
SWIDTH 1140 0
DWIDTH 19 0
BBX 17 17 1 -4
BITMAP
1FFF80
200180
200380
400280
FFFC80
800480
800480
8F0480
888480
888480
8F0480
888480
888480
888480
800500
800600
FFFC00
ENDCHAR
STARTCHAR 0053
ENCODING 83
SWIDTH 1140 0
DWIDTH 19 0
BBX 17 17 1 -4
BITMAP
1FFF80
200180
200380
400280
FFFC80
800480
800480
870480
888480
880480
870480
808480
888480
870480
800500
800600
FFFC00
ENDCHAR
STARTCHAR 0054
ENCODING 84
SWIDTH 1140 0
DWIDTH 19 0
BBX 17 17 1 -4
BITMAP
1FFF80
200180
200380
400280
FFFC80
800480
800480
8F8480
820480
820480
820480
820480
820480
820480
800500
800600
FFFC00
ENDCHAR
STARTCHAR 0055
ENCODING 85
SWIDTH 1140 0
DWIDTH 19 0
BBX 17 17 1 -4
BITMAP
1FFF80
200180
200380
400280
FFFC80
800480
800480
888480
888480
888480
888480
888480
888480
870480
800500
800600
FFFC00
ENDCHAR
STARTCHAR 0056
ENCODING 86
SWIDTH 1140 0
DWIDTH 19 0
BBX 17 17 1 -4
BITMAP
1FFF80
200180
200380
400280
FFFC80
800480
800480
888480
888480
888480
850480
850480
820480
820480
800500
800600
FFFC00
ENDCHAR
STARTCHAR 0057
ENCODING 87
SWIDTH 1140 0
DWIDTH 19 0
BBX 17 17 1 -4
BITMAP
1FFF80
200180
200380
400280
FFFC80
800480
800480
8A8480
8A8480
8A8480
8A8480
8A8480
8A8480
8D8480
800500
800600
FFFC00
ENDCHAR
STARTCHAR 0058
ENCODING 88
SWIDTH 1140 0
DWIDTH 19 0
BBX 17 17 1 -4
BITMAP
1FFF80
200180
200380
400280
FFFC80
800480
800480
888480
850480
820480
820480
820480
850480
888480
800500
800600
FFFC00
ENDCHAR
STARTCHAR 0059
ENCODING 89
SWIDTH 1140 0
DWIDTH 19 0
BBX 17 17 1 -4
BITMAP
1FFF80
200180
200380
400280
FFFC80
800480
800480
888480
888480
888480
870480
820480
820480
820480
800500
800600
FFFC00
ENDCHAR
STARTCHAR 005A
ENCODING 90
SWIDTH 1140 0
DWIDTH 19 0
BBX 17 17 1 -4
BITMAP
1FFF80
200180
200380
400280
FFFC80
800480
800480
8F8480
808480
810480
820480
840480
880480
8F8480
800500
800600
FFFC00
ENDCHAR
STARTCHAR 005B
ENCODING 91
SWIDTH 480 0
DWIDTH 8 0
BBX 0 0 0 0
BITMAP
ENDCHAR
STARTCHAR 005C
ENCODING 92
SWIDTH 480 0
DWIDTH 8 0
BBX 0 0 0 0
BITMAP
ENDCHAR
STARTCHAR 005D
ENCODING 93
SWIDTH 480 0
DWIDTH 8 0
BBX 0 0 0 0
BITMAP
ENDCHAR
STARTCHAR 005E
ENCODING 94
SWIDTH 480 0
DWIDTH 8 0
BBX 0 0 0 0
BITMAP
ENDCHAR
STARTCHAR 005F
ENCODING 95
SWIDTH 480 0
DWIDTH 8 0
BBX 0 0 0 0
BITMAP
ENDCHAR
STARTCHAR 0060
ENCODING 96
SWIDTH 480 0
DWIDTH 8 0
BBX 0 0 0 0
BITMAP
ENDCHAR
STARTCHAR 0061
ENCODING 97
SWIDTH 420 0
DWIDTH 7 0
BBX 5 7 1 -1
BITMAP
70
88
88
F8
88
88
88
ENDCHAR
STARTCHAR 0062
ENCODING 98
SWIDTH 420 0
DWIDTH 7 0
BBX 5 7 1 -1
BITMAP
F0
88
88
F0
88
88
F0
ENDCHAR
STARTCHAR 0063
ENCODING 99
SWIDTH 420 0
DWIDTH 7 0
BBX 5 7 1 -1
BITMAP
70
88
80
80
80
88
70
ENDCHAR
STARTCHAR 0064
ENCODING 100
SWIDTH 420 0
DWIDTH 7 0
BBX 5 7 1 -1
BITMAP
F0
88
88
88
88
88
F0
ENDCHAR
STARTCHAR 0065
ENCODING 101
SWIDTH 420 0
DWIDTH 7 0
BBX 5 7 1 -1
BITMAP
F8
80
80
F8
80
80
F8
ENDCHAR
STARTCHAR 0066
ENCODING 102
SWIDTH 420 0
DWIDTH 7 0
BBX 5 7 1 -1
BITMAP
F8
80
80
F8
80
80
80
ENDCHAR
STARTCHAR 0067
ENCODING 103
SWIDTH 420 0
DWIDTH 7 0
BBX 5 7 1 -1
BITMAP
70
88
80
98
88
88
70
ENDCHAR
STARTCHAR 0068
ENCODING 104
SWIDTH 420 0
DWIDTH 7 0
BBX 5 7 1 -1
BITMAP
88
88
88
F8
88
88
88
ENDCHAR
STARTCHAR 0069
ENCODING 105
SWIDTH 420 0
DWIDTH 7 0
BBX 5 7 1 -1
BITMAP
F8
20
20
20
20
20
F8
ENDCHAR
STARTCHAR 006A
ENCODING 106
SWIDTH 420 0
DWIDTH 7 0
BBX 5 7 1 -1
BITMAP
F8
10
10
10
10
90
60
ENDCHAR
STARTCHAR 006B
ENCODING 107
SWIDTH 420 0
DWIDTH 7 0
BBX 5 7 1 -1
BITMAP
88
90
A0
C0
A0
90
88
ENDCHAR
STARTCHAR 006C
ENCODING 108
SWIDTH 420 0
DWIDTH 7 0
BBX 5 7 1 -1
BITMAP
80
80
80
80
80
80
F8
ENDCHAR
STARTCHAR 006D
ENCODING 109
SWIDTH 420 0
DWIDTH 7 0
BBX 5 7 1 -1
BITMAP
D8
A8
A8
A8
A8
A8
A8
ENDCHAR
STARTCHAR 006E
ENCODING 110
SWIDTH 420 0
DWIDTH 7 0
BBX 5 7 1 -1
BITMAP
C8
A8
A8
A8
A8
A8
98
ENDCHAR
STARTCHAR 006F
ENCODING 111
SWIDTH 420 0
DWIDTH 7 0
BBX 5 7 1 -1
BITMAP
70
88
88
88
88
88
70
ENDCHAR
STARTCHAR 0070
ENCODING 112
SWIDTH 420 0
DWIDTH 7 0
BBX 5 7 1 -1
BITMAP
F0
88
88
F0
80
80
80
ENDCHAR
STARTCHAR 0071
ENCODING 113
SWIDTH 420 0
DWIDTH 7 0
BBX 5 8 1 -2
BITMAP
70
88
88
88
88
A8
70
20
ENDCHAR
STARTCHAR 0072
ENCODING 114
SWIDTH 420 0
DWIDTH 7 0
BBX 5 7 1 -1
BITMAP
F0
88
88
F0
88
88
88
ENDCHAR
STARTCHAR 0073
ENCODING 115
SWIDTH 420 0
DWIDTH 7 0
BBX 5 7 1 -1
BITMAP
70
88
80
70
08
88
70
ENDCHAR
STARTCHAR 0074
ENCODING 116
SWIDTH 420 0
DWIDTH 7 0
BBX 5 7 1 -1
BITMAP
F8
20
20
20
20
20
20
ENDCHAR
STARTCHAR 0075
ENCODING 117
SWIDTH 420 0
DWIDTH 7 0
BBX 5 7 1 -1
BITMAP
88
88
88
88
88
88
70
ENDCHAR
STARTCHAR 0076
ENCODING 118
SWIDTH 420 0
DWIDTH 7 0
BBX 5 7 1 -1
BITMAP
88
88
88
50
50
20
20
ENDCHAR
STARTCHAR 0077
ENCODING 119
SWIDTH 420 0
DWIDTH 7 0
BBX 5 7 1 -1
BITMAP
A8
A8
A8
A8
A8
A8
D8
ENDCHAR
STARTCHAR 0078
ENCODING 120
SWIDTH 420 0
DWIDTH 7 0
BBX 5 7 1 -1
BITMAP
88
50
20
20
20
50
88
ENDCHAR
STARTCHAR 0079
ENCODING 121
SWIDTH 420 0
DWIDTH 7 0
BBX 5 7 1 -1
BITMAP
88
88
88
70
20
20
20
ENDCHAR
STARTCHAR 007A
ENCODING 122
SWIDTH 420 0
DWIDTH 7 0
BBX 5 7 1 -1
BITMAP
F8
08
10
20
40
80
F8
ENDCHAR
STARTCHAR 007B
ENCODING 123
SWIDTH 480 0
DWIDTH 8 0
BBX 0 0 0 0
BITMAP
ENDCHAR
STARTCHAR 007C
ENCODING 124
SWIDTH 480 0
DWIDTH 8 0
BBX 0 0 0 0
BITMAP
ENDCHAR
STARTCHAR 007D
ENCODING 125
SWIDTH 480 0
DWIDTH 8 0
BBX 0 0 0 0
BITMAP
ENDCHAR
STARTCHAR 007E
ENCODING 126
SWIDTH 480 0
DWIDTH 8 0
BBX 0 0 0 0
BITMAP
ENDCHAR
STARTCHAR 00A0
ENCODING 160
SWIDTH 240 0
DWIDTH 4 0
BBX 0 0 0 0
BITMAP
ENDCHAR
STARTCHAR 00A1
ENCODING 161
SWIDTH 480 0
DWIDTH 8 0
BBX 0 0 0 0
BITMAP
ENDCHAR
STARTCHAR 00A2
ENCODING 162
SWIDTH 480 0
DWIDTH 8 0
BBX 0 0 0 0
BITMAP
ENDCHAR
STARTCHAR 00A3
ENCODING 163
SWIDTH 480 0
DWIDTH 8 0
BBX 0 0 0 0
BITMAP
ENDCHAR
STARTCHAR 00A4
ENCODING 164
SWIDTH 480 0
DWIDTH 8 0
BBX 0 0 0 0
BITMAP
ENDCHAR
STARTCHAR 00A5
ENCODING 165
SWIDTH 480 0
DWIDTH 8 0
BBX 0 0 0 0
BITMAP
ENDCHAR
STARTCHAR 00A6
ENCODING 166
SWIDTH 480 0
DWIDTH 8 0
BBX 0 0 0 0
BITMAP
ENDCHAR
STARTCHAR 00A7
ENCODING 167
SWIDTH 480 0
DWIDTH 8 0
BBX 0 0 0 0
BITMAP
ENDCHAR
STARTCHAR 00A8
ENCODING 168
SWIDTH 480 0
DWIDTH 8 0
BBX 0 0 0 0
BITMAP
ENDCHAR
STARTCHAR 00A9
ENCODING 169
SWIDTH 480 0
DWIDTH 8 0
BBX 0 0 0 0
BITMAP
ENDCHAR
STARTCHAR 00AA
ENCODING 170
SWIDTH 480 0
DWIDTH 8 0
BBX 0 0 0 0
BITMAP
ENDCHAR
STARTCHAR 00AB
ENCODING 171
SWIDTH 480 0
DWIDTH 8 0
BBX 0 0 0 0
BITMAP
ENDCHAR
STARTCHAR 00AC
ENCODING 172
SWIDTH 480 0
DWIDTH 8 0
BBX 0 0 0 0
BITMAP
ENDCHAR
STARTCHAR 00AD
ENCODING 173
SWIDTH 480 0
DWIDTH 8 0
BBX 0 0 0 0
BITMAP
ENDCHAR
STARTCHAR 00AE
ENCODING 174
SWIDTH 480 0
DWIDTH 8 0
BBX 0 0 0 0
BITMAP
ENDCHAR
STARTCHAR 00AF
ENCODING 175
SWIDTH 480 0
DWIDTH 8 0
BBX 0 0 0 0
BITMAP
ENDCHAR
STARTCHAR 00B0
ENCODING 176
SWIDTH 480 0
DWIDTH 8 0
BBX 0 0 0 0
BITMAP
ENDCHAR
STARTCHAR 00B1
ENCODING 177
SWIDTH 480 0
DWIDTH 8 0
BBX 0 0 0 0
BITMAP
ENDCHAR
STARTCHAR 00B2
ENCODING 178
SWIDTH 480 0
DWIDTH 8 0
BBX 0 0 0 0
BITMAP
ENDCHAR
STARTCHAR 00B3
ENCODING 179
SWIDTH 480 0
DWIDTH 8 0
BBX 0 0 0 0
BITMAP
ENDCHAR
STARTCHAR 00B4
ENCODING 180
SWIDTH 480 0
DWIDTH 8 0
BBX 0 0 0 0
BITMAP
ENDCHAR
STARTCHAR 00B5
ENCODING 181
SWIDTH 480 0
DWIDTH 8 0
BBX 0 0 0 0
BITMAP
ENDCHAR
STARTCHAR 00B6
ENCODING 182
SWIDTH 480 0
DWIDTH 8 0
BBX 0 0 0 0
BITMAP
ENDCHAR
STARTCHAR 00B7
ENCODING 183
SWIDTH 480 0
DWIDTH 8 0
BBX 0 0 0 0
BITMAP
ENDCHAR
STARTCHAR 00B8
ENCODING 184
SWIDTH 480 0
DWIDTH 8 0
BBX 0 0 0 0
BITMAP
ENDCHAR
STARTCHAR 00B9
ENCODING 185
SWIDTH 480 0
DWIDTH 8 0
BBX 0 0 0 0
BITMAP
ENDCHAR
STARTCHAR 00BA
ENCODING 186
SWIDTH 480 0
DWIDTH 8 0
BBX 0 0 0 0
BITMAP
ENDCHAR
STARTCHAR 00BB
ENCODING 187
SWIDTH 480 0
DWIDTH 8 0
BBX 0 0 0 0
BITMAP
ENDCHAR
STARTCHAR 00BC
ENCODING 188
SWIDTH 480 0
DWIDTH 8 0
BBX 0 0 0 0
BITMAP
ENDCHAR
STARTCHAR 00BD
ENCODING 189
SWIDTH 480 0
DWIDTH 8 0
BBX 0 0 0 0
BITMAP
ENDCHAR
STARTCHAR 00BE
ENCODING 190
SWIDTH 480 0
DWIDTH 8 0
BBX 0 0 0 0
BITMAP
ENDCHAR
STARTCHAR 00BF
ENCODING 191
SWIDTH 480 0
DWIDTH 8 0
BBX 0 0 0 0
BITMAP
ENDCHAR
STARTCHAR 00C0
ENCODING 192
SWIDTH 480 0
DWIDTH 8 0
BBX 0 0 0 0
BITMAP
ENDCHAR
STARTCHAR 00C1
ENCODING 193
SWIDTH 480 0
DWIDTH 8 0
BBX 0 0 0 0
BITMAP
ENDCHAR
STARTCHAR 00C2
ENCODING 194
SWIDTH 480 0
DWIDTH 8 0
BBX 0 0 0 0
BITMAP
ENDCHAR
STARTCHAR 00C3
ENCODING 195
SWIDTH 480 0
DWIDTH 8 0
BBX 0 0 0 0
BITMAP
ENDCHAR
STARTCHAR 00C4
ENCODING 196
SWIDTH 480 0
DWIDTH 8 0
BBX 0 0 0 0
BITMAP
ENDCHAR
STARTCHAR 00C5
ENCODING 197
SWIDTH 480 0
DWIDTH 8 0
BBX 0 0 0 0
BITMAP
ENDCHAR
STARTCHAR 00C6
ENCODING 198
SWIDTH 480 0
DWIDTH 8 0
BBX 0 0 0 0
BITMAP
ENDCHAR
STARTCHAR 00C7
ENCODING 199
SWIDTH 480 0
DWIDTH 8 0
BBX 0 0 0 0
BITMAP
ENDCHAR
STARTCHAR 00C8
ENCODING 200
SWIDTH 480 0
DWIDTH 8 0
BBX 0 0 0 0
BITMAP
ENDCHAR
STARTCHAR 00C9
ENCODING 201
SWIDTH 480 0
DWIDTH 8 0
BBX 0 0 0 0
BITMAP
ENDCHAR
STARTCHAR 00CA
ENCODING 202
SWIDTH 480 0
DWIDTH 8 0
BBX 0 0 0 0
BITMAP
ENDCHAR
STARTCHAR 00CB
ENCODING 203
SWIDTH 480 0
DWIDTH 8 0
BBX 0 0 0 0
BITMAP
ENDCHAR
STARTCHAR 00CC
ENCODING 204
SWIDTH 480 0
DWIDTH 8 0
BBX 0 0 0 0
BITMAP
ENDCHAR
STARTCHAR 00CD
ENCODING 205
SWIDTH 480 0
DWIDTH 8 0
BBX 0 0 0 0
BITMAP
ENDCHAR
STARTCHAR 00CE
ENCODING 206
SWIDTH 480 0
DWIDTH 8 0
BBX 0 0 0 0
BITMAP
ENDCHAR
STARTCHAR 00CF
ENCODING 207
SWIDTH 480 0
DWIDTH 8 0
BBX 0 0 0 0
BITMAP
ENDCHAR
STARTCHAR 00D0
ENCODING 208
SWIDTH 480 0
DWIDTH 8 0
BBX 0 0 0 0
BITMAP
ENDCHAR
STARTCHAR 00D1
ENCODING 209
SWIDTH 480 0
DWIDTH 8 0
BBX 0 0 0 0
BITMAP
ENDCHAR
STARTCHAR 00D2
ENCODING 210
SWIDTH 480 0
DWIDTH 8 0
BBX 0 0 0 0
BITMAP
ENDCHAR
STARTCHAR 00D3
ENCODING 211
SWIDTH 480 0
DWIDTH 8 0
BBX 0 0 0 0
BITMAP
ENDCHAR
STARTCHAR 00D4
ENCODING 212
SWIDTH 480 0
DWIDTH 8 0
BBX 0 0 0 0
BITMAP
ENDCHAR
STARTCHAR 00D5
ENCODING 213
SWIDTH 480 0
DWIDTH 8 0
BBX 0 0 0 0
BITMAP
ENDCHAR
STARTCHAR 00D6
ENCODING 214
SWIDTH 480 0
DWIDTH 8 0
BBX 0 0 0 0
BITMAP
ENDCHAR
STARTCHAR 00D7
ENCODING 215
SWIDTH 480 0
DWIDTH 8 0
BBX 0 0 0 0
BITMAP
ENDCHAR
STARTCHAR 00D8
ENCODING 216
SWIDTH 480 0
DWIDTH 8 0
BBX 0 0 0 0
BITMAP
ENDCHAR
STARTCHAR 00D9
ENCODING 217
SWIDTH 480 0
DWIDTH 8 0
BBX 0 0 0 0
BITMAP
ENDCHAR
STARTCHAR 00DA
ENCODING 218
SWIDTH 480 0
DWIDTH 8 0
BBX 0 0 0 0
BITMAP
ENDCHAR
STARTCHAR 00DB
ENCODING 219
SWIDTH 480 0
DWIDTH 8 0
BBX 0 0 0 0
BITMAP
ENDCHAR
STARTCHAR 00DC
ENCODING 220
SWIDTH 480 0
DWIDTH 8 0
BBX 0 0 0 0
BITMAP
ENDCHAR
STARTCHAR 00DD
ENCODING 221
SWIDTH 480 0
DWIDTH 8 0
BBX 0 0 0 0
BITMAP
ENDCHAR
STARTCHAR 00DE
ENCODING 222
SWIDTH 480 0
DWIDTH 8 0
BBX 0 0 0 0
BITMAP
ENDCHAR
STARTCHAR 00DF
ENCODING 223
SWIDTH 480 0
DWIDTH 8 0
BBX 0 0 0 0
BITMAP
ENDCHAR
STARTCHAR 00E0
ENCODING 224
SWIDTH 480 0
DWIDTH 8 0
BBX 0 0 0 0
BITMAP
ENDCHAR
STARTCHAR 00E1
ENCODING 225
SWIDTH 480 0
DWIDTH 8 0
BBX 0 0 0 0
BITMAP
ENDCHAR
STARTCHAR 00E2
ENCODING 226
SWIDTH 480 0
DWIDTH 8 0
BBX 0 0 0 0
BITMAP
ENDCHAR
STARTCHAR 00E3
ENCODING 227
SWIDTH 480 0
DWIDTH 8 0
BBX 0 0 0 0
BITMAP
ENDCHAR
STARTCHAR 00E4
ENCODING 228
SWIDTH 480 0
DWIDTH 8 0
BBX 0 0 0 0
BITMAP
ENDCHAR
STARTCHAR 00E5
ENCODING 229
SWIDTH 480 0
DWIDTH 8 0
BBX 0 0 0 0
BITMAP
ENDCHAR
STARTCHAR 00E6
ENCODING 230
SWIDTH 480 0
DWIDTH 8 0
BBX 0 0 0 0
BITMAP
ENDCHAR
STARTCHAR 00E7
ENCODING 231
SWIDTH 480 0
DWIDTH 8 0
BBX 0 0 0 0
BITMAP
ENDCHAR
STARTCHAR 00E8
ENCODING 232
SWIDTH 480 0
DWIDTH 8 0
BBX 0 0 0 0
BITMAP
ENDCHAR
STARTCHAR 00E9
ENCODING 233
SWIDTH 480 0
DWIDTH 8 0
BBX 0 0 0 0
BITMAP
ENDCHAR
STARTCHAR 00EA
ENCODING 234
SWIDTH 480 0
DWIDTH 8 0
BBX 0 0 0 0
BITMAP
ENDCHAR
STARTCHAR 00EB
ENCODING 235
SWIDTH 480 0
DWIDTH 8 0
BBX 0 0 0 0
BITMAP
ENDCHAR
STARTCHAR 00EC
ENCODING 236
SWIDTH 480 0
DWIDTH 8 0
BBX 0 0 0 0
BITMAP
ENDCHAR
STARTCHAR 00ED
ENCODING 237
SWIDTH 480 0
DWIDTH 8 0
BBX 0 0 0 0
BITMAP
ENDCHAR
STARTCHAR 00EE
ENCODING 238
SWIDTH 480 0
DWIDTH 8 0
BBX 0 0 0 0
BITMAP
ENDCHAR
STARTCHAR 00EF
ENCODING 239
SWIDTH 480 0
DWIDTH 8 0
BBX 0 0 0 0
BITMAP
ENDCHAR
STARTCHAR 00F0
ENCODING 240
SWIDTH 480 0
DWIDTH 8 0
BBX 0 0 0 0
BITMAP
ENDCHAR
STARTCHAR 00F1
ENCODING 241
SWIDTH 480 0
DWIDTH 8 0
BBX 0 0 0 0
BITMAP
ENDCHAR
STARTCHAR 00F2
ENCODING 242
SWIDTH 480 0
DWIDTH 8 0
BBX 0 0 0 0
BITMAP
ENDCHAR
STARTCHAR 00F3
ENCODING 243
SWIDTH 480 0
DWIDTH 8 0
BBX 0 0 0 0
BITMAP
ENDCHAR
STARTCHAR 00F4
ENCODING 244
SWIDTH 480 0
DWIDTH 8 0
BBX 0 0 0 0
BITMAP
ENDCHAR
STARTCHAR 00F5
ENCODING 245
SWIDTH 480 0
DWIDTH 8 0
BBX 0 0 0 0
BITMAP
ENDCHAR
STARTCHAR 00F6
ENCODING 246
SWIDTH 480 0
DWIDTH 8 0
BBX 0 0 0 0
BITMAP
ENDCHAR
STARTCHAR 00F7
ENCODING 247
SWIDTH 480 0
DWIDTH 8 0
BBX 0 0 0 0
BITMAP
ENDCHAR
STARTCHAR 00F8
ENCODING 248
SWIDTH 480 0
DWIDTH 8 0
BBX 0 0 0 0
BITMAP
ENDCHAR
STARTCHAR 00F9
ENCODING 249
SWIDTH 480 0
DWIDTH 8 0
BBX 0 0 0 0
BITMAP
ENDCHAR
STARTCHAR 00FA
ENCODING 250
SWIDTH 480 0
DWIDTH 8 0
BBX 0 0 0 0
BITMAP
ENDCHAR
STARTCHAR 00FB
ENCODING 251
SWIDTH 480 0
DWIDTH 8 0
BBX 0 0 0 0
BITMAP
ENDCHAR
STARTCHAR 00FC
ENCODING 252
SWIDTH 480 0
DWIDTH 8 0
BBX 0 0 0 0
BITMAP
ENDCHAR
STARTCHAR 00FD
ENCODING 253
SWIDTH 480 0
DWIDTH 8 0
BBX 0 0 0 0
BITMAP
ENDCHAR
STARTCHAR 00FE
ENCODING 254
SWIDTH 480 0
DWIDTH 8 0
BBX 0 0 0 0
BITMAP
ENDCHAR
STARTCHAR 00FF
ENCODING 255
SWIDTH 480 0
DWIDTH 8 0
BBX 0 0 0 0
BITMAP
ENDCHAR
STARTCHAR 0152
ENCODING 338
SWIDTH 480 0
DWIDTH 8 0
BBX 0 0 0 0
BITMAP
ENDCHAR
STARTCHAR 0153
ENCODING 339
SWIDTH 480 0
DWIDTH 8 0
BBX 0 0 0 0
BITMAP
ENDCHAR
STARTCHAR 0160
ENCODING 352
SWIDTH 480 0
DWIDTH 8 0
BBX 0 0 0 0
BITMAP
ENDCHAR
STARTCHAR 0161
ENCODING 353
SWIDTH 480 0
DWIDTH 8 0
BBX 0 0 0 0
BITMAP
ENDCHAR
STARTCHAR 0178
ENCODING 376
SWIDTH 480 0
DWIDTH 8 0
BBX 0 0 0 0
BITMAP
ENDCHAR
STARTCHAR 017D
ENCODING 381
SWIDTH 480 0
DWIDTH 8 0
BBX 0 0 0 0
BITMAP
ENDCHAR
STARTCHAR 017E
ENCODING 382
SWIDTH 480 0
DWIDTH 8 0
BBX 0 0 0 0
BITMAP
ENDCHAR
STARTCHAR 0192
ENCODING 402
SWIDTH 480 0
DWIDTH 8 0
BBX 0 0 0 0
BITMAP
ENDCHAR
STARTCHAR 02C6
ENCODING 710
SWIDTH 480 0
DWIDTH 8 0
BBX 0 0 0 0
BITMAP
ENDCHAR
STARTCHAR 02DC
ENCODING 732
SWIDTH 480 0
DWIDTH 8 0
BBX 0 0 0 0
BITMAP
ENDCHAR
STARTCHAR 2013
ENCODING 8211
SWIDTH 480 0
DWIDTH 8 0
BBX 0 0 0 0
BITMAP
ENDCHAR
STARTCHAR 2014
ENCODING 8212
SWIDTH 480 0
DWIDTH 8 0
BBX 0 0 0 0
BITMAP
ENDCHAR
STARTCHAR 2018
ENCODING 8216
SWIDTH 480 0
DWIDTH 8 0
BBX 0 0 0 0
BITMAP
ENDCHAR
STARTCHAR 2019
ENCODING 8217
SWIDTH 480 0
DWIDTH 8 0
BBX 0 0 0 0
BITMAP
ENDCHAR
STARTCHAR 201A
ENCODING 8218
SWIDTH 480 0
DWIDTH 8 0
BBX 0 0 0 0
BITMAP
ENDCHAR
STARTCHAR 201C
ENCODING 8220
SWIDTH 480 0
DWIDTH 8 0
BBX 0 0 0 0
BITMAP
ENDCHAR
STARTCHAR 201D
ENCODING 8221
SWIDTH 480 0
DWIDTH 8 0
BBX 0 0 0 0
BITMAP
ENDCHAR
STARTCHAR 201E
ENCODING 8222
SWIDTH 480 0
DWIDTH 8 0
BBX 0 0 0 0
BITMAP
ENDCHAR
STARTCHAR 2020
ENCODING 8224
SWIDTH 480 0
DWIDTH 8 0
BBX 0 0 0 0
BITMAP
ENDCHAR
STARTCHAR 2021
ENCODING 8225
SWIDTH 480 0
DWIDTH 8 0
BBX 0 0 0 0
BITMAP
ENDCHAR
STARTCHAR 2022
ENCODING 8226
SWIDTH 480 0
DWIDTH 8 0
BBX 0 0 0 0
BITMAP
ENDCHAR
STARTCHAR 2026
ENCODING 8230
SWIDTH 480 0
DWIDTH 8 0
BBX 0 0 0 0
BITMAP
ENDCHAR
STARTCHAR 2030
ENCODING 8240
SWIDTH 480 0
DWIDTH 8 0
BBX 0 0 0 0
BITMAP
ENDCHAR
STARTCHAR 2039
ENCODING 8249
SWIDTH 480 0
DWIDTH 8 0
BBX 0 0 0 0
BITMAP
ENDCHAR
STARTCHAR 203A
ENCODING 8250
SWIDTH 480 0
DWIDTH 8 0
BBX 0 0 0 0
BITMAP
ENDCHAR
STARTCHAR 20AC
ENCODING 8364
SWIDTH 480 0
DWIDTH 8 0
BBX 0 0 0 0
BITMAP
ENDCHAR
STARTCHAR 2122
ENCODING 8482
SWIDTH 480 0
DWIDTH 8 0
BBX 0 0 0 0
BITMAP
ENDCHAR
STARTCHAR 2219
ENCODING 8729
SWIDTH 480 0
DWIDTH 8 0
BBX 0 0 0 0
BITMAP
ENDCHAR
ENDFONT
